# xmcd
#
# Track frame offsets:
# 150
# 19014
# 32169
# 46898
# 55542
# 70144
# 88601
# 104722
# 130036
# 152118
# 167077
# 178839
# 193067
# 211356
# 229284
# 241323
# 253007
# 273296
#
# Disc length: 3893 seconds
#
#
# Revision: 0
# Processed by: cddbd v1.5.2PL0 Copyright (c) Steve Scherf et al.
# Submitted via: FreeRIP 2.951 
#
DISCID=fa0f3312
DTITLE=Various Artist - Русские народные песни 1
DYEAR=2006
DGENRE=Country
TTITLE0=Николай Басков-Шарманка
TTITLE1=Анна Литвиненко-Москва златоглавая
TTITLE2=Группа "Золотое кольцо"-Ой, то не вечер
TTITLE3=Нина Русланова-Валенки
TTITLE4=Кубанский казачий хор-Распрягайте, хлопцы, коней
TTITLE5=Хор п/у Николая Кутузова-Калинка
TTITLE6=Анна Литвиненко-Златые горы
TTITLE7=Людмила Зыкина-Волга
TTITLE8=Хор п/у Николая Кутузова-По диким степям
TTITLE9=Анна Литвиненко, Тамара Мушта-И ктоего знает
TTITLE10=ВладимирТрошин-Одинокая гармонь
TTITLE11=Трио "Рябинушка"-Хас-булат удалой
TTITLE12=Анна Литвиненко-Окрасился месяц багрянцем
TTITLE13=Валентина Готовцева-По муромской дорожке
TTITLE14=Зоя Рождественская-Лучше нету того свету
TTITLE15=Игорь Скобцов-Вдоль по питерской
TTITLE16=Юрий Гуляев-Из-за острова
TTITLE17=Анатолий Соловьяненко-То не ветер ветку клонит
EXTD=
EXTT0=
EXTT1=
EXTT2=
EXTT3=
EXTT4=
EXTT5=
EXTT6=
EXTT7=
EXTT8=
EXTT9=
EXTT10=
EXTT11=
EXTT12=
EXTT13=
EXTT14=
EXTT15=
EXTT16=
EXTT17=
PLAYORDER=
